<svg width="29" height="29" viewbox="0 0 29 29" xmlns="http://www.w3.org/2000/svg"><g fill="none" fill-rule="evenodd"><g transform="rotate(-90 14.5 6)" fill="#FFF"><rect x="5.129" width="1.412" height="11.556" rx=".706"/><path d="M10.845 6.401a.73.73 0 010 1.021L6.353 12.02a.698.698 0 01-.998 0 .73.73 0 010-1.022l4.492-4.596a.698.698 0 01.998 0z"/><path d="M.784 6.33a.698.698 0 01.998 0l4.493 4.597a.73.73 0 010 1.021.698.698 0 01-.999 0L.784 7.352a.73.73 0 010-1.021z"/></g><circle stroke="#FFF" stroke-width="2" cx="14.5" cy="14.5" r="13.5"/></g></svg>